<svg width="48" height="48" viewBox="0 0 48 48" fill="none" xmlns="http://www.w3.org/2000/svg">
  <!-- Fondo circular con gradiente azul -->
  <defs>
    <radialGradient id="blueGradient" cx="50%" cy="50%" r="50%">
      <stop offset="0%" style="stop-color:#60a5fa;stop-opacity:1" />
      <stop offset="100%" style="stop-color:#1d4ed8;stop-opacity:1" />
    </radialGradient>
    <filter id="glow">
      <feGaussianBlur stdDeviation="2" result="coloredBlur"/>
      <feMerge> 
        <feMergeNode in="coloredBlur"/>
        <feMergeNode in="SourceGraphic"/>
      </feMerge>
    </filter>
  </defs>
  
  <!-- Círculo de fondo -->
  <circle cx="24" cy="24" r="22" fill="url(#blueGradient)" filter="url(#glow)"/>
  
  <!-- Pala - Hoja azul -->
  <path d="M24 8 L16 16 L32 16 Z" fill="#3b82f6" stroke="#1e40af" stroke-width="1"/>
  
  <!-- Mango naranja -->
  <rect x="22" y="16" width="4" height="20" rx="2" fill="#f97316"/>
  <rect x="22" y="16" width="4" height="20" rx="2" fill="url(#woodGradient)"/>
  
  <!-- Empuñadura en forma de D -->
  <path d="M24 36 Q28 36 28 40 Q28 44 24 44 Q20 44 20 40 Q20 36 24 36 Z" fill="#3b82f6" stroke="#1e40af" stroke-width="1"/>
  
  <!-- Cara en la pala -->
  <!-- Ojo izquierdo -->
  <circle cx="20" cy="12" r="2" fill="white"/>
  <circle cx="20" cy="12" r="1" fill="black"/>
  <circle cx="19.5" cy="11.5" r="0.3" fill="white"/>
  
  <!-- Ojo derecho guiñando -->
  <path d="M26 12 Q28 11 30 12" stroke="#1e40af" stroke-width="1.5" fill="none"/>
  
  <!-- Sonrisa -->
  <path d="M18 14 Q24 16 30 14" stroke="#1e40af" stroke-width="1.5" fill="none"/>
  
  <!-- Lengua -->
  <ellipse cx="24" cy="15" rx="2" ry="1" fill="#60a5fa"/>
  
  <!-- Brillo estrella -->
  <g transform="translate(15, 8)">
    <path d="M0 0 L1 -1 L0 -2 L-1 -1 Z" fill="white" opacity="0.8"/>
    <path d="M0 0 L1 1 L0 2 L-1 1 Z" fill="white" opacity="0.8"/>
    <path d="M0 0 L-1 -1 L-2 0 L-1 1 Z" fill="white" opacity="0.8"/>
    <path d="M0 0 L1 -1 L2 0 L1 1 Z" fill="white" opacity="0.8"/>
  </g>
  
  <!-- Gradiente para el mango de madera -->
  <defs>
    <linearGradient id="woodGradient" x1="0%" y1="0%" x2="100%" y2="0%">
      <stop offset="0%" style="stop-color:#f97316;stop-opacity:1" />
      <stop offset="50%" style="stop-color:#ea580c;stop-opacity:1" />
      <stop offset="100%" style="stop-color:#f97316;stop-opacity:1" />
    </linearGradient>
  </defs>
</svg>
